<svg width="116" height="81" viewBox="0 0 116 81" fill="none" xmlns="http://www.w3.org/2000/svg">
<path d="M11.6938 74.2646H10.8872L8.48854 76.7942V74.2646H7.83398V78.6481H8.48854V77.5881L9.41337 76.6379L10.9716 78.6481H11.7444L9.861 76.165L11.6938 74.2646Z" fill="#545555"/>
<path d="M14.5176 77.9217L12.9213 74.2646H12.1992L14.1924 78.6312C13.9306 79.2519 13.6815 79.4546 13.293 79.4546C13.0142 79.4546 12.82 79.404 12.6046 79.2942L12.385 79.8136C12.6806 79.9572 12.9551 80.0332 13.3183 80.0332C13.9813 80.0332 14.4036 79.7038 14.7752 78.7959L16.6164 74.2646H15.9239L14.5176 77.9217Z" fill="#545555"/>
<path d="M17.6562 78.6481H18.3108V74.8432H20.8023V78.6481H21.4569V74.2646H17.6562V78.6481Z" fill="#545555"/>
<path d="M24.7891 77.9217L23.1928 74.2646H22.4707L24.4639 78.6312C24.2021 79.2519 23.953 79.4546 23.5644 79.4546C23.2857 79.4546 23.0915 79.404 22.8761 79.2942L22.6565 79.8136C22.9521 79.9572 23.2266 80.0332 23.5898 80.0332C24.2528 80.0332 24.6751 79.7038 25.0467 78.7959L26.8879 74.2646H26.1911L24.7891 77.9217Z" fill="#545555"/>
<path d="M28.5803 77.7359V74.2646H27.9258V78.6481H28.555L31.1648 75.181V78.6481H31.8193V74.2646H31.1817L28.5803 77.7359Z" fill="#545555"/>
<path d="M31.0464 72.6007L30.5988 72.5078C30.4975 72.871 30.2694 73.1032 29.8513 73.1032C29.4375 73.1032 29.2052 72.8752 29.1039 72.5078L28.6562 72.6007C28.7576 73.2046 29.2179 73.6353 29.8513 73.6353C30.489 73.6353 30.9451 73.2046 31.0464 72.6007Z" fill="#545555"/>
<path d="M38.0773 76.5704L36.443 74.2646H35.8223V78.6481H36.4599V75.3077L38.0604 77.529L39.682 75.3077V78.6481H40.345V74.2646H39.7158L38.0773 76.5704Z" fill="#545555"/>
<path d="M43.6362 74.1719C42.4242 74.1719 41.5332 75.1896 41.5332 76.4607C41.5332 77.8247 42.5172 78.7495 43.7207 78.7495C44.5526 78.7495 45.0847 78.4202 45.5281 77.9261L45.1227 77.5629C44.768 77.9345 44.3415 78.1837 43.7418 78.1837C42.969 78.1837 42.2933 77.6474 42.1962 76.7267H45.6717C45.6801 76.6254 45.6801 76.5578 45.6801 76.4987C45.6801 75.2065 44.9327 74.1719 43.6362 74.1719ZM42.192 76.1989C42.2849 75.3501 42.8634 74.7251 43.6151 74.7251C44.4808 74.7251 44.9369 75.405 45.0129 76.1989H42.192Z" fill="#545555"/>
<path d="M49.0292 74.3153C48.096 74.3153 47.5174 74.746 47.2134 75.2654C47.2809 74.4251 47.585 73.9352 48.4929 73.7029L50.8662 73.116L50.7395 72.5627L48.2987 73.1413C46.77 73.5045 46.6602 74.8642 46.6602 76.2789C46.6602 77.8076 47.5512 78.7451 48.8814 78.7451C50.1779 78.7451 51.128 77.7105 51.128 76.4901C51.1323 75.2908 50.1736 74.3153 49.0292 74.3153ZM48.9025 78.1666C48.0199 78.1666 47.3316 77.4276 47.3316 76.5112C47.3316 75.5948 47.9777 74.8558 48.8856 74.8558C49.7682 74.8558 50.4566 75.5948 50.4566 76.5112C50.4566 77.4276 49.8105 78.1666 48.9025 78.1666Z" fill="#545555"/>
<path d="M52.9298 74.6277C52.9298 77.9174 52.4906 78.1497 51.9627 78.1497C51.8867 78.1497 51.7347 78.1159 51.6502 78.0906L51.5742 78.6522C51.7094 78.686 51.9543 78.7198 52.0979 78.7198C52.9298 78.7198 53.5463 78.365 53.5463 74.9445V74.8431H55.3791V78.6522H56.0336V74.2688H52.9298V74.6277Z" fill="#545555"/>
<path d="M58.2092 74.2646H57.5547V78.6481H58.2092V74.2646Z" fill="#545555"/>
<path d="M58.2592 72.584H57.5117V73.3061H58.2592V72.584Z" fill="#545555"/>
<path d="M62.2715 78.6481H62.9218V74.8432H65.4176V78.6481H66.0679V74.2646H62.2715V78.6481Z" fill="#545555"/>
<path d="M69.8607 74.1719C69.0541 74.1719 68.5389 74.6195 68.1799 75.1474V74.2648H67.5254V80.008H68.1799V77.812C68.5178 78.3019 69.0456 78.7453 69.8607 78.7453C70.9206 78.7453 71.9553 77.8965 71.9553 76.4649C71.9553 75.0038 70.9122 74.1719 69.8607 74.1719ZM69.7424 78.1583C68.9274 78.1583 68.1546 77.4784 68.1546 76.4607C68.1546 75.443 68.9274 74.7546 69.7424 74.7546C70.5744 74.7546 71.288 75.4176 71.288 76.4523C71.288 77.5291 70.5912 78.1583 69.7424 78.1583Z" fill="#545555"/>
<path d="M75.1775 74.1719C73.8557 74.1719 72.8887 75.2234 72.8887 76.4607C72.8887 77.7149 73.8473 78.7495 75.1606 78.7495C76.4824 78.7495 77.4579 77.698 77.4579 76.4607C77.4621 75.2065 76.4951 74.1719 75.1775 74.1719ZM75.1775 78.1668C74.2527 78.1668 73.5559 77.4024 73.5559 76.4607C73.5559 75.519 74.2105 74.7462 75.1606 74.7462C76.0854 74.7462 76.7907 75.519 76.7907 76.4607C76.7907 77.4024 76.1277 78.1668 75.1775 78.1668Z" fill="#545555"/>
<path d="M80.6498 78.1668C79.7335 78.1668 79.0367 77.4109 79.0367 76.4607C79.0367 75.5021 79.7166 74.7462 80.6076 74.7462C81.2031 74.7462 81.6085 75.0249 81.9547 75.3923L82.3686 74.9531C81.9632 74.5224 81.4438 74.1719 80.6118 74.1719C79.3323 74.1719 78.3652 75.2234 78.3652 76.4607C78.3652 77.7065 79.3323 78.7495 80.6118 78.7495C81.4353 78.7495 81.959 78.3948 82.4024 77.9007L81.9716 77.5038C81.6253 77.8796 81.2115 78.1668 80.6498 78.1668Z" fill="#545555"/>
<path d="M82.9727 74.8432H84.5436V78.6481H85.2066V74.8432H86.7733V74.2646H82.9727V74.8432Z" fill="#545555"/>
<path d="M89.572 74.1719C88.2502 74.1719 87.2832 75.2234 87.2832 76.4607C87.2832 77.7149 88.2418 78.7495 89.5551 78.7495C90.8769 78.7495 91.8524 77.698 91.8524 76.4607C91.8524 75.2065 90.8854 74.1719 89.572 74.1719ZM89.572 78.1668C88.6472 78.1668 87.9504 77.4024 87.9504 76.4607C87.9504 75.519 88.605 74.7462 89.5551 74.7462C90.48 74.7462 91.1852 75.519 91.1852 76.4607C91.1852 77.4024 90.5222 78.1668 89.572 78.1668Z" fill="#545555"/>
<path d="M93.8386 73.1963V72.7148H93.0742V73.1963L93.2727 76.9716H93.6359L93.8386 73.1963Z" fill="#545555"/>
<path d="M93.8457 77.7612H93.0645V78.6523H93.8457V77.7612Z" fill="#545555"/>
<path d="M73.687 17.5378L56.1407 0.0759277H46.2675L0.119141 46.258H15.9509L51.2759 10.9162L73.6912 33.2218L90.4648 16.5707V46.2622H101.639V0.0759277H90.4648L73.687 17.5378Z" fill="#1C964D"/>
<path d="M27.8376 12.0565L15.8149 0.029541H0L19.9281 19.9618L27.8376 12.0565Z" fill="#604337"/>
<path d="M62.0856 46.2412L42.2758 26.4736L34.3535 34.3916L46.2158 46.2412H62.0856Z" fill="#604337"/>
<path d="M104.256 0.962832H106.139V5.92901H107.191V0.962832H109.07V0H104.256V0.962832Z" fill="#604337"/>
<path d="M114.893 0L113.086 2.80403L111.283 0H110.172V5.92901H111.198V1.6934L113.052 4.4721H113.086L114.961 1.67651V5.92901H116V0H114.893Z" fill="#604337"/>
<path d="M6.05992 60.3416L9.3876 55.4768H6.90029L4.79304 58.7074L2.70268 55.4768H0.14358L3.47126 60.3712L0 65.4345H2.48731L4.73814 62.0224L6.97208 65.4345H9.53118L6.05992 60.3416Z" fill="#604337"/>
<path d="M14.0587 60.785C12.2513 60.785 10.9844 61.5536 10.9844 63.2174C10.9844 64.7546 12.1668 65.5781 13.6026 65.5781C14.6541 65.5781 15.3805 65.1938 15.9083 64.611V65.4345H17.9987V61.0088C17.9987 59.9827 17.7411 59.1465 17.1752 58.5764C16.6347 58.0359 15.7816 57.7234 14.5992 57.7234C13.3028 57.7234 12.4793 57.9641 11.6389 58.3357L12.1795 59.9869C12.8763 59.7293 13.459 59.573 14.2867 59.573C15.3678 59.573 15.921 60.0713 15.921 60.9666V61.0933C15.3805 60.9117 14.8273 60.785 14.0587 60.785ZM15.9506 62.3644V62.7487C15.9506 63.5299 15.2664 64.0874 14.2572 64.0874C13.5604 64.0874 13.0747 63.7453 13.0747 63.1625C13.0747 62.4489 13.6448 62.0815 14.5697 62.0815C15.0975 62.0815 15.5789 62.1955 15.9506 62.3644Z" fill="#604337"/>
<path d="M24.899 57.6685C23.7757 57.6685 23.0494 58.1963 22.5215 58.9058V57.812H20.3594V67.7148H22.5215V64.4421C23.0325 65.0544 23.7462 65.578 24.899 65.578C26.7065 65.578 28.3703 64.1845 28.3703 61.638C28.3703 59.062 26.6769 57.6685 24.899 57.6685ZM24.3458 63.7453C23.3365 63.7453 22.4962 62.9049 22.4962 61.6422C22.4962 60.3458 23.3365 59.5097 24.3458 59.5097C25.3551 59.5097 26.2081 60.35 26.2081 61.6127C26.2081 62.9176 25.3551 63.7453 24.3458 63.7453Z" fill="#604337"/>
<path d="M35.0467 60.9412L37.8466 57.812H35.3592L32.627 60.9412V57.812H30.4648V65.4344H32.627V63.6017L33.6109 62.5333L35.6422 65.4344H38.2055L35.0467 60.9412Z" fill="#604337"/>
<path d="M41.9754 55.0503H39.6992V56.9717H41.9754V55.0503Z" fill="#604337"/>
<path d="M41.9161 57.812H39.7539V65.4386H41.9161V57.812Z" fill="#604337"/>
<path d="M49.9706 61.4395C50.6251 61.1566 51.1783 60.6414 51.1783 59.7166C51.1783 58.5215 50.169 57.812 48.6319 57.812H44.4512V65.4386H48.6192C50.3844 65.4386 51.4655 64.6574 51.4655 63.361C51.4655 62.2926 50.8954 61.7225 49.9706 61.4395ZM46.588 59.4041H48.1378C48.7628 59.4041 49.0204 59.7292 49.0204 60.1008C49.0204 60.5443 48.7206 60.8694 48.1082 60.8694H46.588V59.4041ZM48.294 63.7452H46.588V62.2377H48.2392C48.9782 62.2377 49.278 62.567 49.278 62.9767C49.2738 63.4285 48.9613 63.7452 48.294 63.7452Z" fill="#604337"/>
<path d="M68.4421 65.4345V55.4768H66.0814L63.4632 59.6913L60.845 55.4768H58.4844V65.4345H60.6296V58.9776L63.4041 63.1879H63.4632L66.263 58.9354V65.4345H68.4421Z" fill="#604337"/>
<path d="M74.5016 57.6685C72.2803 57.6685 70.7305 59.4632 70.7305 61.638C70.7305 63.9986 72.4239 65.6076 74.7127 65.6076C76.0936 65.6076 77.1156 65.067 77.8292 64.1845L76.5919 63.0907C75.9965 63.6439 75.4686 63.872 74.7423 63.872C73.7752 63.872 73.0911 63.361 72.8799 62.377H78.1882C78.2009 62.1786 78.2177 61.9759 78.2177 61.8069C78.2177 59.649 77.048 57.6685 74.5016 57.6685ZM72.8546 61.0257C73.0235 60.0417 73.6105 59.4041 74.5058 59.4041C75.4179 59.4041 75.9838 60.0586 76.1147 61.0257H72.8546Z" fill="#604337"/>
<path d="M84.4762 58.095C82.9095 58.095 81.9847 58.8763 81.7017 59.3746C81.7609 58.6482 82.1409 57.867 83.5514 57.5841L87.7321 56.7564L87.39 55.0503L83.3065 55.8062C80.4475 56.3341 80.1055 58.7665 80.1055 61.0553C80.1055 63.986 81.5159 65.6076 84.0877 65.6076C86.4061 65.6076 88.0868 63.8593 88.0868 61.7521C88.0911 59.6617 86.4145 58.095 84.4762 58.095ZM84.1215 63.7453C83.0531 63.7453 82.2592 62.8627 82.2592 61.7817C82.2592 60.671 82.9982 59.7884 84.0961 59.7884C85.1646 59.7884 85.9585 60.6879 85.9585 61.7817C85.9585 62.8754 85.2321 63.7453 84.1215 63.7453Z" fill="#604337"/>
<path d="M89.5176 63.6862C89.4163 63.6862 89.146 63.6566 89.0615 63.644L88.918 65.3923C89.2009 65.4641 89.7288 65.519 90.0117 65.519C91.9163 65.519 92.7862 64.7081 92.7862 59.6575H94.7203V65.4345H96.8824V57.8079H90.755C90.755 63.2175 90.3284 63.6862 89.5176 63.6862Z" fill="#604337"/>
<path d="M101.582 57.812H99.4199V65.4386H101.582V57.812Z" fill="#604337"/>
<path d="M101.638 55.0503H99.3613V56.9717H101.638V55.0503Z" fill="#604337"/>
</svg>
