<svg width="125" height="87" viewBox="0 0 125 87" fill="none" xmlns="http://www.w3.org/2000/svg">
<path d="M12.6006 80.0266H11.7315L9.14675 82.7524V80.0266H8.44141V84.7501H9.14675V83.6079L10.1433 82.584L11.8225 84.7501H12.6552L10.6257 82.0744L12.6006 80.0266Z" fill="#545555"/>
<path d="M15.6448 83.9674L13.9246 80.0266H13.1465L15.2944 84.7319C15.0122 85.4008 14.7437 85.6193 14.3251 85.6193C14.0247 85.6193 13.8154 85.5647 13.5833 85.4464L13.3467 86.0061C13.6653 86.1608 13.961 86.2427 14.3524 86.2427C15.0668 86.2427 15.5219 85.8878 15.9223 84.9094L17.9064 80.0266H17.1601L15.6448 83.9674Z" fill="#545555"/>
<path d="M19.0254 84.7501H19.7307V80.65H22.4156V84.7501H23.1209V80.0266H19.0254V84.7501Z" fill="#545555"/>
<path d="M26.7112 83.9674L24.991 80.0266H24.2129L26.3608 84.7319C26.0786 85.4008 25.8101 85.6193 25.3915 85.6193C25.0912 85.6193 24.8818 85.5647 24.6497 85.4464L24.4131 86.0061C24.7317 86.1608 25.0274 86.2427 25.4188 86.2427C26.1332 86.2427 26.5883 85.8878 26.9887 84.9094L28.9728 80.0266H28.222L26.7112 83.9674Z" fill="#545555"/>
<path d="M30.7991 83.7672V80.0266H30.0938V84.7501H30.7718L33.584 81.0141V84.7501H34.2894V80.0266H33.6023L30.7991 83.7672Z" fill="#545555"/>
<path d="M33.4565 78.2337L32.9741 78.1335C32.8649 78.5249 32.6192 78.7752 32.1687 78.7752C31.7227 78.7752 31.4724 78.5294 31.3632 78.1335L30.8809 78.2337C30.9901 78.8844 31.4861 79.3486 32.1687 79.3486C32.8558 79.3486 33.3473 78.8844 33.4565 78.2337Z" fill="#545555"/>
<path d="M41.0335 82.5112L39.2725 80.0266H38.6035V84.7501H39.2907V81.1506L41.0153 83.5442L42.7627 81.1506V84.7501H43.4772V80.0266H42.7992L41.0335 82.5112Z" fill="#545555"/>
<path d="M47.022 79.9265C45.716 79.9265 44.7559 81.0232 44.7559 82.3929C44.7559 83.8628 45.8161 84.8593 47.1131 84.8593C48.0095 84.8593 48.5829 84.5044 49.0607 83.972L48.6239 83.5806C48.2416 83.9811 47.782 84.2496 47.1358 84.2496C46.3031 84.2496 45.575 83.6716 45.4703 82.6796H49.2154C49.2245 82.5704 49.2245 82.4976 49.2245 82.4339C49.2245 81.0414 48.4191 79.9265 47.022 79.9265ZM45.4657 82.1108C45.5659 81.1961 46.1893 80.5226 46.9993 80.5226C47.9322 80.5226 48.4236 81.2553 48.5055 82.1108H45.4657Z" fill="#545555"/>
<path d="M52.8322 80.0811C51.8265 80.0811 51.2031 80.5453 50.8754 81.105C50.9482 80.1994 51.2759 79.6716 52.2542 79.4213L54.8117 78.7888L54.6752 78.1926L52.0449 78.8161C50.3976 79.2074 50.2793 80.6727 50.2793 82.1971C50.2793 83.8445 51.2395 84.8547 52.6729 84.8547C54.0699 84.8547 55.0938 83.7398 55.0938 82.4247C55.0984 81.1323 54.0654 80.0811 52.8322 80.0811ZM52.6957 84.2313C51.7446 84.2313 51.0028 83.4349 51.0028 82.4474C51.0028 81.4599 51.6991 80.6636 52.6775 80.6636C53.6285 80.6636 54.3703 81.4599 54.3703 82.4474C54.3703 83.4349 53.674 84.2313 52.6957 84.2313Z" fill="#545555"/>
<path d="M57.0369 80.418C57.0369 83.963 56.5636 84.2132 55.9948 84.2132C55.9129 84.2132 55.7491 84.1768 55.6581 84.1495L55.5762 84.7548C55.7218 84.7912 55.9857 84.8276 56.1404 84.8276C57.0369 84.8276 57.7013 84.4453 57.7013 80.7593V80.6501H59.6762V84.7548H60.3816V80.0312H57.0369V80.418V80.418Z" fill="#545555"/>
<path d="M62.7249 80.0266H62.0195V84.7501H62.7249V80.0266Z" fill="#545555"/>
<path d="M62.7801 78.2156H61.9746V78.9937H62.7801V78.2156Z" fill="#545555"/>
<path d="M67.1035 84.7501H67.8043V80.65H70.4937V84.7501H71.1945V80.0266H67.1035V84.7501Z" fill="#545555"/>
<path d="M75.2801 79.9265C74.411 79.9265 73.8558 80.4089 73.469 80.9777V80.0266H72.7637V86.2154H73.469V83.8491C73.8331 84.377 74.4019 84.8548 75.2801 84.8548C76.4223 84.8548 77.5372 83.9401 77.5372 82.3975C77.5372 80.823 76.4132 79.9265 75.2801 79.9265ZM75.1527 84.2223C74.2745 84.2223 73.4417 83.4896 73.4417 82.3929C73.4417 81.2962 74.2745 80.5545 75.1527 80.5545C76.0492 80.5545 76.8182 81.2689 76.8182 82.3838C76.8182 83.5442 76.0674 84.2223 75.1527 84.2223Z" fill="#545555"/>
<path d="M81.0094 79.9265C79.5851 79.9265 78.543 81.0596 78.543 82.3929C78.543 83.7445 79.576 84.8593 80.9912 84.8593C82.4155 84.8593 83.4667 83.7263 83.4667 82.3929C83.4713 81.0414 82.4292 79.9265 81.0094 79.9265ZM81.0094 84.2314C80.0128 84.2314 79.262 83.4077 79.262 82.3929C79.262 81.3781 79.9673 80.5454 80.9912 80.5454C81.9878 80.5454 82.7477 81.3781 82.7477 82.3929C82.7477 83.4077 82.0333 84.2314 81.0094 84.2314Z" fill="#545555"/>
<path d="M86.9072 84.2314C85.9197 84.2314 85.1689 83.4168 85.1689 82.3929C85.1689 81.3599 85.9015 80.5454 86.8617 80.5454C87.5033 80.5454 87.9402 80.8457 88.3133 81.2416L88.7593 80.7684C88.3224 80.3042 87.7627 79.9265 86.8662 79.9265C85.4874 79.9265 84.4453 81.0596 84.4453 82.3929C84.4453 83.7354 85.4874 84.8593 86.8662 84.8593C87.7536 84.8593 88.3179 84.4771 88.7957 83.9447L88.3315 83.5169C87.9584 83.9219 87.5124 84.2314 86.9072 84.2314Z" fill="#545555"/>
<path d="M89.4102 80.65H91.103V84.7501H91.8174V80.65H93.5057V80.0266H89.4102V80.65Z" fill="#545555"/>
<path d="M96.523 79.9265C95.0987 79.9265 94.0566 81.0596 94.0566 82.3929C94.0566 83.7445 95.0896 84.8593 96.5048 84.8593C97.9292 84.8593 98.9804 83.7263 98.9804 82.3929C98.9804 81.0414 97.9383 79.9265 96.523 79.9265ZM96.523 84.2314C95.5265 84.2314 94.7756 83.4077 94.7756 82.3929C94.7756 81.3781 95.481 80.5454 96.5048 80.5454C97.5014 80.5454 98.2614 81.3781 98.2614 82.3929C98.2614 83.4077 97.5469 84.2314 96.523 84.2314Z" fill="#545555"/>
<path d="M101.119 78.8752V78.3564H100.295V78.8752L100.509 82.9434H100.9L101.119 78.8752Z" fill="#545555"/>
<path d="M101.127 83.7944H100.285V84.7546H101.127V83.7944Z" fill="#545555"/>
<path d="M79.4027 18.8985L60.495 0.0817871H49.8557L0.126953 49.847H17.1871L55.2527 11.7631L79.4072 35.7993L97.4822 17.8564V49.8515H109.523V0.0817871H97.4822L79.4027 18.8985Z" fill="#1C964D"/>
<path d="M29.9974 12.9923L17.0419 0.0322266H0L21.4742 21.511L29.9974 12.9923Z" fill="#604337"/>
<path d="M66.9032 49.8289L45.5564 28.5276L37.0195 37.0599L49.8021 49.8289H66.9032Z" fill="#604337"/>
<path d="M112.346 1.03753H114.375V6.38902H115.508V1.03753H117.533V0H112.346V1.03753Z" fill="#604337"/>
<path d="M123.808 0L121.861 3.02159L119.918 0H118.721V6.38902H119.826V1.82479L121.824 4.81907H121.861L123.881 1.80658V6.38902H125.001V0H123.808Z" fill="#604337"/>
<path d="M6.53009 65.0233L10.1159 59.781H7.43565L5.16491 63.2622L2.91237 59.781H0.15472L3.74058 65.0551L0 70.5113H2.68029L5.10576 66.8344L7.51302 70.5113H10.2707L6.53009 65.0233Z" fill="#604337"/>
<path d="M15.1488 65.5011C13.2011 65.5011 11.8359 66.3293 11.8359 68.1222C11.8359 69.7786 13.1101 70.666 14.6573 70.666C15.7904 70.666 16.5731 70.2519 17.1419 69.6239V70.5113H19.3945V65.7423C19.3945 64.6365 19.1169 63.7355 18.5071 63.1211C17.9246 62.5386 17.0054 62.2019 15.7312 62.2019C14.3342 62.2019 13.4468 62.4613 12.5413 62.8617L13.1238 64.641C13.8746 64.3634 14.5026 64.1951 15.3945 64.1951C16.5594 64.1951 17.1556 64.732 17.1556 65.6968V65.8333C16.5731 65.6376 15.977 65.5011 15.1488 65.5011ZM17.1874 67.203V67.6171C17.1874 68.459 16.4502 69.0596 15.3626 69.0596C14.6118 69.0596 14.0885 68.691 14.0885 68.0631C14.0885 67.294 14.7028 66.8981 15.6994 66.8981C16.2682 66.8981 16.787 67.021 17.1874 67.203Z" fill="#604337"/>
<path d="M26.8294 62.1428C25.6189 62.1428 24.8362 62.7116 24.2674 63.4761V62.2975H21.9375V72.9687H24.2674V69.442C24.818 70.1018 25.5871 70.6661 26.8294 70.6661C28.777 70.6661 30.57 69.1644 30.57 66.4204C30.57 63.6445 28.7452 62.1428 26.8294 62.1428ZM26.2333 68.6911C25.1457 68.6911 24.2401 67.7855 24.2401 66.4249C24.2401 65.0279 25.1457 64.1269 26.2333 64.1269C27.3208 64.1269 28.2401 65.0324 28.2401 66.3931C28.2401 67.7992 27.3208 68.6911 26.2333 68.6911Z" fill="#604337"/>
<path d="M37.7655 65.6696L40.7826 62.2976H38.1023L35.158 65.6696V62.2976H32.8281V70.5114H35.158V68.5365L36.2183 67.3852L38.4071 70.5114H41.1693L37.7655 65.6696Z" fill="#604337"/>
<path d="M45.2321 59.3215H42.7793V61.392H45.2321V59.3215Z" fill="#604337"/>
<path d="M45.1697 62.2976H42.8398V70.516H45.1697V62.2976Z" fill="#604337"/>
<path d="M53.848 66.2066C54.5533 65.9017 55.1495 65.3465 55.1495 64.3499C55.1495 63.0621 54.0619 62.2976 52.4055 62.2976H47.9004V70.516H52.3918C54.294 70.516 55.4589 69.6741 55.4589 68.2771C55.4589 67.1258 54.8446 66.5114 53.848 66.2066ZM50.203 64.0132H51.873C52.5465 64.0132 52.8241 64.3636 52.8241 64.764C52.8241 65.2418 52.501 65.5922 51.8412 65.5922H50.203V64.0132ZM52.0414 68.6912H50.203V67.0666H51.9823C52.7786 67.0666 53.1017 67.4216 53.1017 67.863C53.0972 68.3499 52.7604 68.6912 52.0414 68.6912Z" fill="#604337"/>
<path d="M73.7518 70.5113V59.781H71.208L68.3866 64.3225L65.5653 59.781H63.0215V70.5113H65.3332V63.5534L68.3229 68.0904H68.3866L71.4037 63.5079V70.5113H73.7518Z" fill="#604337"/>
<path d="M80.2805 62.1428C77.8869 62.1428 76.2168 64.0768 76.2168 66.4204C76.2168 68.9641 78.0416 70.6979 80.508 70.6979C81.996 70.6979 83.0973 70.1154 83.8663 69.1644L82.533 67.9858C81.8914 68.5819 81.3226 68.8276 80.5399 68.8276C79.4978 68.8276 78.7606 68.277 78.533 67.2167H84.2531C84.2668 67.0028 84.285 66.7844 84.285 66.6024C84.285 64.277 83.0245 62.1428 80.2805 62.1428ZM78.5057 65.7605C78.6878 64.7002 79.3203 64.0131 80.285 64.0131C81.2679 64.0131 81.8777 64.7185 82.0188 65.7605H78.5057Z" fill="#604337"/>
<path d="M91.0302 62.6025C89.3419 62.6025 88.3453 63.4444 88.0404 63.9813C88.1041 63.1986 88.5137 62.3568 90.0336 62.0519L94.5387 61.16L94.1701 59.3215L89.7697 60.1361C86.6889 60.7049 86.3203 63.326 86.3203 65.7925C86.3203 68.9506 87.8402 70.698 90.6115 70.698C93.1098 70.698 94.9209 68.814 94.9209 66.5433C94.9255 64.2908 93.1189 62.6025 91.0302 62.6025ZM90.6479 68.6912C89.4966 68.6912 88.6411 67.7401 88.6411 66.5752C88.6411 65.3784 89.4375 64.4273 90.6206 64.4273C91.7719 64.4273 92.6274 65.3966 92.6274 66.5752C92.6274 67.7538 91.8447 68.6912 90.6479 68.6912Z" fill="#604337"/>
<path d="M96.4626 68.6274C96.3534 68.6274 96.0621 68.5955 95.9711 68.5819L95.8164 70.4658C96.1213 70.5432 96.6901 70.6023 96.995 70.6023C99.0473 70.6023 99.9847 69.7286 99.9847 64.2861H102.069V70.5113H104.399V62.293H97.7959C97.7959 68.1223 97.3363 68.6274 96.4626 68.6274Z" fill="#604337"/>
<path d="M109.465 62.2976H107.135V70.516H109.465V62.2976Z" fill="#604337"/>
<path d="M109.523 59.3215H107.07V61.392H109.523V59.3215Z" fill="#604337"/>
</svg>
