<svg width="15" height="15" viewBox="0 0 15 15" fill="none" xmlns="http://www.w3.org/2000/svg">
<path fill-rule="evenodd" clip-rule="evenodd" d="M7.46967 0.5H7.53033C8.85871 0.499995 9.89654 0.499991 10.7192 0.589117C11.5574 0.679934 12.2313 0.868075 12.8053 1.28515C13.1544 1.53872 13.4613 1.84565 13.7148 2.19466C14.1319 2.76872 14.3201 3.4426 14.4109 4.28083C14.5 5.10345 14.5 6.14128 14.5 7.46966V7.53034C14.5 8.85872 14.5 9.89655 14.4109 10.7192C14.3201 11.5574 14.1319 12.2313 13.7148 12.8053C13.4613 13.1544 13.1544 13.4613 12.8053 13.7148C12.2313 14.1319 11.5574 14.3201 10.7192 14.4109C9.89655 14.5 8.85872 14.5 7.53034 14.5H7.46966C6.14128 14.5 5.10345 14.5 4.28083 14.4109C3.4426 14.3201 2.76872 14.1319 2.19466 13.7148C1.84565 13.4613 1.53872 13.1544 1.28515 12.8053C0.868075 12.2313 0.679934 11.5574 0.589117 10.7192C0.499991 9.89654 0.499995 8.85871 0.5 7.53033V7.46967C0.499995 6.14129 0.499991 5.10346 0.589117 4.28083C0.679934 3.4426 0.868075 2.76872 1.28515 2.19466C1.53872 1.84565 1.84565 1.53872 2.19466 1.28515C2.76872 0.868075 3.4426 0.679934 4.28083 0.589117C5.10346 0.499991 6.14129 0.499995 7.46967 0.5ZM4.38854 1.5833C3.6354 1.6649 3.15762 1.82159 2.78245 2.09417C2.51833 2.28606 2.28606 2.51833 2.09417 2.78245C1.82159 3.15762 1.6649 3.6354 1.5833 4.38854C1.50069 5.15105 1.5 6.13479 1.5 7.5C1.5 8.86521 1.50069 9.84895 1.5833 10.6115C1.6649 11.3646 1.82159 11.8424 2.09417 12.2176C2.28606 12.4817 2.51833 12.7139 2.78245 12.9058C3.15762 13.1784 3.6354 13.3351 4.38854 13.4167C5.15105 13.4993 6.13479 13.5 7.5 13.5C8.86521 13.5 9.84895 13.4993 10.6115 13.4167C11.3646 13.3351 11.8424 13.1784 12.2176 12.9058C12.4817 12.7139 12.7139 12.4817 12.9058 12.2176C13.1784 11.8424 13.3351 11.3646 13.4167 10.6115C13.4993 9.84895 13.5 8.86521 13.5 7.5C13.5 6.13479 13.4993 5.15105 13.4167 4.38854C13.3351 3.6354 13.1784 3.15762 12.9058 2.78245C12.7139 2.51833 12.4817 2.28606 12.2176 2.09417C11.8424 1.82159 11.3646 1.6649 10.6115 1.5833C9.84895 1.50069 8.86521 1.5 7.5 1.5C6.13479 1.5 5.15105 1.50069 4.38854 1.5833ZM11.4631 5.70043C11.6592 5.89482 11.6606 6.2114 11.4662 6.40753L10.1831 7.70218C9.69792 8.19171 9.3039 8.58928 8.95341 8.87075C8.58994 9.16265 8.22518 9.37054 7.78952 9.42607C7.59727 9.45057 7.40273 9.45057 7.21048 9.42607C6.77482 9.37054 6.41006 9.16265 6.04659 8.87075C5.6961 8.58928 5.30207 8.19171 4.81691 7.70218L3.53376 6.40753C3.33937 6.2114 3.34079 5.89482 3.53692 5.70043C3.73305 5.50604 4.04963 5.50745 4.24402 5.70358L5.50596 6.97684C6.01743 7.49289 6.37182 7.84938 6.67275 8.09106C6.9658 8.3264 7.15928 8.41145 7.33692 8.43409C7.44521 8.4479 7.55479 8.4479 7.66308 8.43409C7.84072 8.41145 8.0342 8.3264 8.32725 8.09106C8.62818 7.84938 8.98257 7.49289 9.49404 6.97684L10.756 5.70358C10.9504 5.50745 11.267 5.50604 11.4631 5.70043Z" fill="white"/>
</svg>
